<?xml version="1.0" encoding="utf-8"?>
<svg xmlns="http://www.w3.org/2000/svg" viewBox="0 0 500 500" xmlns:bx="https://boxy-svg.com">
  <path d="M 86.661 416.642 C 72.021 416.642 59.481 411.427 49.051 400.998 C 38.621 390.571 33.411 378.036 33.411 363.389 L 33.411 116.211 C 33.411 101.571 38.621 89.031 49.051 78.611 C 59.481 68.181 72.021 62.961 86.661 62.961 L 197.181 62.961 L 250.431 116.211 L 414.212 116.211 C 428.852 116.211 441.392 121.431 451.821 131.861 C 462.25 142.291 467.465 154.821 467.465 169.471 L 467.465 363.389 C 467.465 378.036 462.25 390.571 451.821 400.998 C 441.392 411.427 428.852 416.642 414.212 416.642 L 86.661 416.642 Z M 86.661 363.389 L 414.212 363.389 L 414.212 169.471 L 228.331 169.471 L 175.081 116.211 L 86.661 116.211 L 86.661 363.389 Z M 86.661 363.389 L 86.661 116.211 L 86.661 363.389 Z" style="stroke-width: 1; fill: rgb(255, 195, 0);"/>
  <path d="M -398.611 -292.536 H -245.657 L -245.657 -338.44 L -104.354 -266.536 L -245.657 -194.632 L -245.657 -240.536 H -398.611 V -292.536 Z" bx:shape="arrow -398.611 -338.44 294.257 143.808 52 141.303 0 1@0333c06e" style="stroke: rgb(0, 0, 0); transform-box: fill-box; transform-origin: 50% 50%; fill: rgb(255, 195, 0); fill-rule: nonzero;" transform="matrix(-1, 0, 0, -1, 502.964966, 533.072014)"/>
</svg>