<?xml version="1.0" encoding="utf-8"?>
<svg xmlns="http://www.w3.org/2000/svg" viewBox="0 0 500 500" xmlns:bx="https://boxy-svg.com">
  <path d="M 86.661 416.642 C 72.021 416.642 59.481 411.427 49.051 400.998 C 38.621 390.571 33.411 378.036 33.411 363.389 L 33.411 116.211 C 33.411 101.571 38.621 89.031 49.051 78.611 C 59.481 68.181 72.021 62.961 86.661 62.961 L 197.181 62.961 L 250.431 116.211 L 414.212 116.211 C 428.852 116.211 441.392 121.431 451.821 131.861 C 462.25 142.291 467.465 154.821 467.465 169.471 L 467.465 363.389 C 467.465 378.036 462.25 390.571 451.821 400.998 C 441.392 411.427 428.852 416.642 414.212 416.642 L 86.661 416.642 Z M 86.661 363.389 L 414.212 363.389 L 414.212 169.471 L 228.331 169.471 L 175.081 116.211 L 86.661 116.211 L 86.661 363.389 Z M 86.661 363.389 L 86.661 116.211 L 86.661 363.389 Z" style="stroke-width: 1; fill: rgb(255, 195, 0);"/>
  <path d="M 217.143 177.724 H 282.932 V 232.424 H 340.348 V 298.213 H 282.932 V 352.913 H 217.143 V 298.213 H 159.727 V 232.424 H 217.143 Z" bx:shape="cross 159.727 177.724 180.621 175.189 65.789 65.789 0.5 1@1bad35f1" style="stroke: rgb(0, 0, 0); fill: rgb(255, 195, 0); transform-box: fill-box; transform-origin: 35.7143% 24.4186%;"/>
</svg>